<svg preserveAspectRatio="none" overflow="visible" style="display: block;" width="29" height="31.6181" viewBox="0 0 29 31.6181" fill="none" xmlns="http://www.w3.org/2000/svg">
<g id="html5-original 1" clip-path="url(#clip0_0_57)">
<path id="Vector" d="M4.31307 28.1292L2.04632 0.41028H26.9537L24.6844 28.125L14.4848 31.2078L4.31307 28.1292Z" fill="url(#paint0_linear_0_57)"/>
<path id="Vector_2" d="M14.5 28.8515L22.7419 26.3601L24.681 2.67667H14.5V28.8515Z" fill="#AF05FF"/>
<path id="Vector_3" d="M14.5 12.9572H10.3738L10.0888 9.4758H14.5V6.07636H6.68108L6.75585 6.98834L7.52208 16.3569H14.5V12.9572ZM14.5 21.7863L14.4862 21.7905L11.0136 20.7679L10.7918 18.0569H7.66142L8.09823 23.3947L14.4857 25.3278L14.5 25.3236V21.7863Z" fill="#EBEBEB"/>
<path id="Vector_4" d="M14.4891 12.9572V16.3569H18.3287L17.9668 20.7659L14.4891 21.7893V25.3263L20.8816 23.3947L20.9285 22.8204L21.6612 13.8702L21.7371 12.9572H20.897H14.4891ZM14.4891 6.07636V9.4758H22.021L22.0835 8.71202L22.2258 6.98834L22.3003 6.07636H14.4891Z" fill="white"/>
</g>
<defs>
<linearGradient id="paint0_linear_0_57" x1="14.5" y1="0.41028" x2="14.5" y2="31.2078" gradientUnits="userSpaceOnUse">
<stop stop-color="#AF05FF"/>
<stop offset="1" stop-color="#3612FF"/>
</linearGradient>
<clipPath id="clip0_0_57">
<rect width="29" height="31.6181" fill="white"/>
</clipPath>
</defs>
</svg>
